<svg width="53" height="53" viewBox="0 0 53 53" fill="none" xmlns="http://www.w3.org/2000/svg">
<rect x="0.0680542" y="0.665283" width="51.9792" height="51.9792" rx="25.9896" fill="#E4F7F2"/>
<path d="M20.3607 27.0458C20.1238 26.6017 19.65 26.3352 19.1466 26.3352H17.5773C17.9623 22.0417 21.5451 18.6662 25.9273 18.6662C27.3486 18.6662 28.7403 19.0215 29.9839 19.7322C30.6353 20.1171 31.4644 19.8802 31.8493 19.1992C32.2342 18.5478 31.9974 17.7187 31.3163 17.3338C29.6878 16.4158 27.8224 15.9125 25.9273 15.9125C20.0349 15.9125 15.2381 20.5316 14.8828 26.3056H13.2247C12.7213 26.3056 12.2475 26.572 12.0107 27.0162C11.7738 27.4603 11.8034 27.9933 12.0699 28.4079L15.0309 32.9678C15.2974 33.3527 15.7119 33.5896 16.1857 33.5896C16.6594 33.5896 17.074 33.3527 17.3404 32.9678L20.3014 28.4079C20.5975 28.0229 20.5975 27.4603 20.3607 27.0458Z" fill="#26C296"/>
<path d="M39.789 25.5952L36.828 21.0353C36.3246 20.2654 35.0514 20.2654 34.548 21.0353L31.5574 25.5952C31.2909 26.0097 31.2613 26.5427 31.4982 26.9869C31.7351 27.431 32.2088 27.6975 32.7122 27.6975H34.2815C33.8966 31.991 30.3138 35.3665 25.9315 35.3665C24.5398 35.3665 23.1186 35.0112 21.875 34.3005C21.2235 33.9452 20.3945 34.1821 20.0095 34.8335C19.6542 35.4849 19.8911 36.314 20.5425 36.6989C22.2007 37.6168 24.0365 38.0906 25.9315 38.0906C31.8239 38.0906 36.6207 33.4714 37.0056 27.6975H38.6342C39.1375 27.6975 39.6113 27.431 39.8482 26.9869C40.0554 26.5427 40.0555 26.0097 39.789 25.5952Z" fill="#26C296"/>
</svg>
