<svg width="53" height="53" viewBox="0 0 53 53" fill="none" xmlns="http://www.w3.org/2000/svg">
<rect x="0.752808" y="0.936035" width="51.9792" height="51.9792" rx="25.9896" fill="#E4F7F2"/>
<path d="M28.9338 34.307L28.2678 31.7259C28.1845 31.4206 27.8792 31.2264 27.5739 31.3096C27.2687 31.3929 27.0744 31.6982 27.1576 32.0034L27.8237 34.6122C27.1299 35.0008 26.6581 35.7224 26.6581 36.555C26.6581 37.8039 27.6572 38.803 28.9061 38.803C30.155 38.803 31.1541 37.8039 31.1541 36.555C31.1818 35.3338 30.1827 34.3347 28.9338 34.307Z" fill="#26C296"/>
<path d="M21.4423 27.95L17.9177 29.1712C17.5014 28.6716 16.8908 28.3386 16.1692 28.3386C14.9203 28.3386 13.9212 29.3377 13.9212 30.5866C13.9212 31.8355 14.9203 32.8346 16.1692 32.8346C17.4181 32.8346 18.4172 31.8355 18.4172 30.5866C18.4172 30.4756 18.3895 30.3368 18.3895 30.2258L21.8031 29.0324C22.1084 28.9214 22.2472 28.6161 22.1639 28.3108C22.0806 28.0055 21.7476 27.839 21.4423 27.95Z" fill="#26C296"/>
<path d="M36.6498 25.5361C35.5952 25.5361 34.7349 26.2577 34.4851 27.2013H31.793C31.4877 27.2013 31.2102 27.4511 31.2102 27.7564C31.2102 28.0617 31.46 28.3115 31.793 28.3115H34.4573C34.7071 29.2828 35.5952 29.9766 36.6221 29.9766C37.871 29.9766 38.8701 28.9775 38.8701 27.7286C38.8701 26.4797 37.8987 25.5361 36.6498 25.5361Z" fill="#26C296"/>
<path d="M26.6601 30.6983C28.7446 30.6983 30.4345 29.0209 30.4345 26.9516C30.4345 24.8824 28.7446 23.205 26.6601 23.205C24.5755 23.205 22.8856 24.8824 22.8856 26.9516C22.8856 29.0209 24.5755 30.6983 26.6601 30.6983Z" fill="#26C296"/>
<path d="M23.2463 22.7616L22.0251 21.8458C22.1361 21.5682 22.1916 21.2907 22.1916 20.9854C22.1916 19.7365 21.1925 18.7374 19.9436 18.7374C18.6947 18.7374 17.6956 19.7365 17.6956 20.9854C17.6956 22.2343 18.6947 23.2334 19.9436 23.2334C20.4709 23.2334 20.9427 23.0392 21.3313 22.7616L22.5524 23.7052C22.6634 23.7885 22.7744 23.8163 22.8855 23.8163C23.052 23.8163 23.2185 23.733 23.3295 23.5942C23.5515 23.3167 23.496 22.9559 23.2463 22.7616Z" fill="#26C296"/>
<path d="M29.0214 22.9831C29.1047 23.0386 29.2157 23.0664 29.3267 23.0664C29.521 23.0664 29.7152 22.9553 29.8263 22.7888L31.6025 19.847C31.8522 19.9303 32.102 19.9858 32.3518 19.9858C33.6007 19.9858 34.5998 18.9866 34.5998 17.7378C34.5998 16.4889 33.6007 15.4897 32.3518 15.4897C31.1029 15.4897 30.1038 16.4889 30.1038 17.7378C30.1038 18.2928 30.3258 18.7924 30.6589 19.2087L28.8549 22.206C28.6606 22.4558 28.7439 22.8166 29.0214 22.9831Z" fill="#26C296"/>
</svg>
